  0
SECTION
  2
HEADER
  9
$ACADVER
  1
AC1009
  9
$EXTMIN
 10
0.0
 20
0.0
 30
0.0
  9
$EXTMAX
 10
1000.0
 20
1000.0
 30
0.0
  9
$FILLMODE
 70
 0
  9
$SPLFRAME
 70
 1
  0
ENDSEC
  0
SECTION
  2
TABLES
  0
TABLE
  2
LAYER
 70
1
  0
LAYER
  2
0
 70
     0
 62
     7
  6
CONTINUOUS
  0
ENDTAB
  0
ENDSEC
  0
SECTION
  2
ENTITIES
  0
LINE
  8
0
 62
     0
 10
0
 20
35.2778
 30
0.0
 11
-35.2778
 21
35.2778
 31
0.0
  0
LINE
  8
0
 62
     0
 10
-35.2778
 20
35.2778
 30
0.0
 11
-35.2778
 21
0
 31
0.0
  0
LINE
  8
0
 62
     0
 10
-35.2778
 20
0
 30
0.0
 11
-35.2778
 21
-35.2778
 31
0.0
  0
LINE
  8
0
 62
     0
 10
-35.2778
 20
-35.2778
 30
0.0
 11
0
 21
-35.2778
 31
0.0
  0
LINE
  8
0
 62
     0
 10
0
 20
-35.2778
 30
0.0
 11
35.2778
 21
-35.2778
 31
0.0
  0
LINE
  8
0
 62
     0
 10
35.2778
 20
-35.2778
 30
0.0
 11
35.2778
 21
0
 31
0.0
  0
LINE
  8
0
 62
     0
 10
35.2778
 20
0
 30
0.0
 11
35.2778
 21
35.2778
 31
0.0
  0
LINE
  8
0
 62
     0
 10
35.2778
 20
35.2778
 30
0.0
 11
0
 21
35.2778
 31
0.0
  0
LINE
  8
0
 62
     0
 10
0
 20
34.5722
 30
0.0
 11
34.5722
 21
34.5722
 31
0.0
  0
LINE
  8
0
 62
     0
 10
34.5722
 20
34.5722
 30
0.0
 11
34.5722
 21
0
 31
0.0
  0
LINE
  8
0
 62
     0
 10
34.5722
 20
0
 30
0.0
 11
34.5722
 21
-34.5722
 31
0.0
  0
LINE
  8
0
 62
     0
 10
34.5722
 20
-34.5722
 30
0.0
 11
20.8139
 21
-34.5722
 31
0.0
  0
LINE
  8
0
 62
     0
 10
20.8139
 20
-34.5722
 30
0.0
 11
7.05556
 21
-34.5722
 31
0.0
  0
LINE
  8
0
 62
     0
 10
7.05556
 20
-34.5722
 30
0.0
 11
7.05556
 21
-15.1694
 31
0.0
  0
LINE
  8
0
 62
     0
 10
7.05556
 20
-15.1694
 30
0.0
 11
7.05556
 21
4.23333
 31
0.0
  0
LINE
  8
0
 62
     0
 10
7.05556
 20
4.23333
 30
0.0
 11
4.93889
 21
4.23333
 31
0.0
  0
LINE
  8
0
 62
     0
 10
4.93889
 20
4.23333
 30
0.0
 11
2.82222
 21
4.23333
 31
0.0
  0
LINE
  8
0
 62
     0
 10
2.82222
 20
4.23333
 30
0.0
 11
2.82222
 21
-15.1694
 31
0.0
  0
LINE
  8
0
 62
     0
 10
2.82222
 20
-15.1694
 30
0.0
 11
2.82222
 21
-34.5722
 31
0.0
  0
LINE
  8
0
 62
     0
 10
2.82222
 20
-34.5722
 30
0.0
 11
-15.875
 21
-34.5722
 31
0.0
  0
LINE
  8
0
 62
     0
 10
-15.875
 20
-34.5722
 30
0.0
 11
-34.5722
 21
-34.5722
 31
0.0
  0
LINE
  8
0
 62
     0
 10
-34.5722
 20
-34.5722
 30
0.0
 11
-34.5722
 21
0
 31
0.0
  0
LINE
  8
0
 62
     0
 10
-34.5722
 20
0
 30
0.0
 11
-34.5722
 21
34.5722
 31
0.0
  0
LINE
  8
0
 62
     0
 10
-34.5722
 20
34.5722
 30
0.0
 11
0
 21
34.5722
 31
0.0
  0
LINE
  8
0
 62
     0
 10
-16.5806
 20
26.8111
 30
0.0
 11
-24.6944
 21
26.8111
 31
0.0
  0
LINE
  8
0
 62
     0
 10
-24.6944
 20
26.8111
 30
0.0
 11
-24.6944
 21
20.8139
 31
0.0
  0
LINE
  8
0
 62
     0
 10
-24.6944
 20
20.8139
 30
0.0
 11
-24.6944
 21
14.8167
 31
0.0
  0
LINE
  8
0
 62
     0
 10
-24.6944
 20
14.8167
 30
0.0
 11
-16.5806
 21
14.8167
 31
0.0
  0
LINE
  8
0
 62
     0
 10
-16.5806
 20
14.8167
 30
0.0
 11
-8.46667
 21
14.8167
 31
0.0
  0
LINE
  8
0
 62
     0
 10
-8.46667
 20
14.8167
 30
0.0
 11
-8.46667
 21
20.8139
 31
0.0
  0
LINE
  8
0
 62
     0
 10
-8.46667
 20
20.8139
 30
0.0
 11
-8.46667
 21
26.8111
 31
0.0
  0
LINE
  8
0
 62
     0
 10
-8.46667
 20
26.8111
 30
0.0
 11
-16.5806
 21
26.8111
 31
0.0
  0
LINE
  8
0
 62
     0
 10
-16.2278
 20
-0.705556
 30
0.0
 11
-17.6389
 21
-0.705556
 31
0.0
  0
LINE
  8
0
 62
     0
 10
-17.6389
 20
-0.705556
 30
0.0
 11
-17.6389
 21
-2.11667
 31
0.0
  0
LINE
  8
0
 62
     0
 10
-17.6389
 20
-2.11667
 30
0.0
 11
-17.6389
 21
-3.52778
 31
0.0
  0
LINE
  8
0
 62
     0
 10
-17.6389
 20
-3.52778
 30
0.0
 11
-16.2278
 21
-3.52778
 31
0.0
  0
LINE
  8
0
 62
     0
 10
-16.2278
 20
-3.52778
 30
0.0
 11
-14.8167
 21
-3.52778
 31
0.0
  0
LINE
  8
0
 62
     0
 10
-14.8167
 20
-3.52778
 30
0.0
 11
-14.8167
 21
-2.11667
 31
0.0
  0
LINE
  8
0
 62
     0
 10
-14.8167
 20
-2.11667
 30
0.0
 11
-14.8167
 21
-0.705556
 31
0.0
  0
LINE
  8
0
 62
     0
 10
-14.8167
 20
-0.705556
 30
0.0
 11
-16.2278
 21
-0.705556
 31
0.0
  0
ENDSEC
  0
EOF
