  0
SECTION
  2
HEADER
  9
$ACADVER
  1
AC1009
  9
$EXTMIN
 10
0.0
 20
0.0
 30
0.0
  9
$EXTMAX
 10
1000.0
 20
1000.0
 30
0.0
  9
$FILLMODE
 70
 0
  9
$SPLFRAME
 70
 1
  0
ENDSEC
  0
SECTION
  2
TABLES
  0
TABLE
  2
LAYER
 70
1
  0
LAYER
  2
0
 70
     0
 62
     7
  6
CONTINUOUS
  0
ENDTAB
  0
ENDSEC
  0
SECTION
  2
ENTITIES
  0
LINE
  8
0
 62
     0
 10
0
 20
28.2222
 30
0.0
 11
-42.3333
 21
28.2222
 31
0.0
  0
LINE
  8
0
 62
     0
 10
-42.3333
 20
28.2222
 30
0.0
 11
-42.3333
 21
0
 31
0.0
  0
LINE
  8
0
 62
     0
 10
-42.3333
 20
0
 30
0.0
 11
-42.3333
 21
-28.2222
 31
0.0
  0
LINE
  8
0
 62
     0
 10
-42.3333
 20
-28.2222
 30
0.0
 11
0
 21
-28.2222
 31
0.0
  0
LINE
  8
0
 62
     0
 10
0
 20
-28.2222
 30
0.0
 11
42.3333
 21
-28.2222
 31
0.0
  0
LINE
  8
0
 62
     0
 10
42.3333
 20
-28.2222
 30
0.0
 11
42.3333
 21
0
 31
0.0
  0
LINE
  8
0
 62
     0
 10
42.3333
 20
0
 30
0.0
 11
42.3333
 21
28.2222
 31
0.0
  0
LINE
  8
0
 62
     0
 10
42.3333
 20
28.2222
 30
0.0
 11
0
 21
28.2222
 31
0.0
  0
LINE
  8
0
 62
     0
 10
0
 20
27.5167
 30
0.0
 11
41.6278
 21
27.5167
 31
0.0
  0
LINE
  8
0
 62
     0
 10
41.6278
 20
27.5167
 30
0.0
 11
41.6278
 21
0
 31
0.0
  0
LINE
  8
0
 62
     0
 10
41.6278
 20
0
 30
0.0
 11
41.6278
 21
-27.5167
 31
0.0
  0
LINE
  8
0
 62
     0
 10
41.6278
 20
-27.5167
 30
0.0
 11
28.575
 21
-27.5167
 31
0.0
  0
LINE
  8
0
 62
     0
 10
28.575
 20
-27.5167
 30
0.0
 11
15.5222
 21
-27.5167
 31
0.0
  0
LINE
  8
0
 62
     0
 10
15.5222
 20
-27.5167
 30
0.0
 11
15.5222
 21
-22.9306
 31
0.0
  0
LINE
  8
0
 62
     0
 10
15.5222
 20
-22.9306
 30
0.0
 11
15.5222
 21
-18.3444
 31
0.0
  0
LINE
  8
0
 62
     0
 10
15.5222
 20
-18.3444
 30
0.0
 11
14.4639
 21
-18.3444
 31
0.0
  0
LINE
  8
0
 62
     0
 10
14.4639
 20
-18.3444
 30
0.0
 11
13.4056
 21
-18.3444
 31
0.0
  0
LINE
  8
0
 62
     0
 10
13.4056
 20
-18.3444
 30
0.0
 11
13.4056
 21
-22.9306
 31
0.0
  0
LINE
  8
0
 62
     0
 10
13.4056
 20
-22.9306
 30
0.0
 11
13.4056
 21
-27.5167
 31
0.0
  0
LINE
  8
0
 62
     0
 10
13.4056
 20
-27.5167
 30
0.0
 11
-14.1111
 21
-27.5167
 31
0.0
  0
LINE
  8
0
 62
     0
 10
-14.1111
 20
-27.5167
 30
0.0
 11
-41.6278
 21
-27.5167
 31
0.0
  0
LINE
  8
0
 62
     0
 10
-41.6278
 20
-27.5167
 30
0.0
 11
-41.6278
 21
-14.1111
 31
0.0
  0
LINE
  8
0
 62
     0
 10
-41.6278
 20
-14.1111
 30
0.0
 11
-41.6278
 21
-0.705556
 31
0.0
  0
LINE
  8
0
 62
     0
 10
-41.6278
 20
-0.705556
 30
0.0
 11
-29.9861
 21
-0.705556
 31
0.0
  0
LINE
  8
0
 62
     0
 10
-29.9861
 20
-0.705556
 30
0.0
 11
-18.3444
 21
-0.705556
 31
0.0
  0
LINE
  8
0
 62
     0
 10
-18.3444
 20
-0.705556
 30
0.0
 11
-18.3444
 21
0.352778
 31
0.0
  0
LINE
  8
0
 62
     0
 10
-18.3444
 20
0.352778
 30
0.0
 11
-18.3444
 21
1.41111
 31
0.0
  0
LINE
  8
0
 62
     0
 10
-18.3444
 20
1.41111
 30
0.0
 11
-29.9861
 21
1.41111
 31
0.0
  0
LINE
  8
0
 62
     0
 10
-29.9861
 20
1.41111
 30
0.0
 11
-41.6278
 21
1.41111
 31
0.0
  0
LINE
  8
0
 62
     0
 10
-41.6278
 20
1.41111
 30
0.0
 11
-41.6278
 21
14.4639
 31
0.0
  0
LINE
  8
0
 62
     0
 10
-41.6278
 20
14.4639
 30
0.0
 11
-41.6278
 21
27.5167
 31
0.0
  0
LINE
  8
0
 62
     0
 10
-41.6278
 20
27.5167
 30
0.0
 11
0
 21
27.5167
 31
0.0
  0
LINE
  8
0
 62
     0
 10
34.2194
 20
20.4611
 30
0.0
 11
32.4556
 21
20.4611
 31
0.0
  0
LINE
  8
0
 62
     0
 10
32.4556
 20
20.4611
 30
0.0
 11
32.4556
 21
-1.05833
 31
0.0
  0
LINE
  8
0
 62
     0
 10
32.4556
 20
-1.05833
 30
0.0
 11
32.4556
 21
-22.5778
 31
0.0
  0
LINE
  8
0
 62
     0
 10
32.4556
 20
-22.5778
 30
0.0
 11
34.2194
 21
-22.5778
 31
0.0
  0
LINE
  8
0
 62
     0
 10
34.2194
 20
-22.5778
 30
0.0
 11
35.9833
 21
-22.5778
 31
0.0
  0
LINE
  8
0
 62
     0
 10
35.9833
 20
-22.5778
 30
0.0
 11
35.9833
 21
-1.05833
 31
0.0
  0
LINE
  8
0
 62
     0
 10
35.9833
 20
-1.05833
 30
0.0
 11
35.9833
 21
20.4611
 31
0.0
  0
LINE
  8
0
 62
     0
 10
35.9833
 20
20.4611
 30
0.0
 11
34.2194
 21
20.4611
 31
0.0
  0
LINE
  8
0
 62
     0
 10
-23.2833
 20
19.7556
 30
0.0
 11
-32.4556
 21
19.7556
 31
0.0
  0
LINE
  8
0
 62
     0
 10
-32.4556
 20
19.7556
 30
0.0
 11
-32.4556
 21
17.2861
 31
0.0
  0
LINE
  8
0
 62
     0
 10
-32.4556
 20
17.2861
 30
0.0
 11
-32.4556
 21
14.8167
 31
0.0
  0
LINE
  8
0
 62
     0
 10
-32.4556
 20
14.8167
 30
0.0
 11
-23.2833
 21
14.8167
 31
0.0
  0
LINE
  8
0
 62
     0
 10
-23.2833
 20
14.8167
 30
0.0
 11
-14.1111
 21
14.8167
 31
0.0
  0
LINE
  8
0
 62
     0
 10
-14.1111
 20
14.8167
 30
0.0
 11
-14.1111
 21
17.2861
 31
0.0
  0
LINE
  8
0
 62
     0
 10
-14.1111
 20
17.2861
 30
0.0
 11
-14.1111
 21
19.7556
 31
0.0
  0
LINE
  8
0
 62
     0
 10
-14.1111
 20
19.7556
 30
0.0
 11
-23.2833
 21
19.7556
 31
0.0
  0
LINE
  8
0
 62
     0
 10
2.11667
 20
1.41111
 30
0.0
 11
-11.2889
 21
1.41111
 31
0.0
  0
LINE
  8
0
 62
     0
 10
-11.2889
 20
1.41111
 30
0.0
 11
-11.2889
 21
0.352778
 31
0.0
  0
LINE
  8
0
 62
     0
 10
-11.2889
 20
0.352778
 30
0.0
 11
-11.2889
 21
-0.705556
 31
0.0
  0
LINE
  8
0
 62
     0
 10
-11.2889
 20
-0.705556
 30
0.0
 11
1.05833
 21
-0.705556
 31
0.0
  0
LINE
  8
0
 62
     0
 10
1.05833
 20
-0.705556
 30
0.0
 11
13.4056
 21
-0.705556
 31
0.0
  0
LINE
  8
0
 62
     0
 10
13.4056
 20
-0.705556
 30
0.0
 11
13.4056
 21
-7.05556
 31
0.0
  0
LINE
  8
0
 62
     0
 10
13.4056
 20
-7.05556
 30
0.0
 11
13.4056
 21
-13.4056
 31
0.0
  0
LINE
  8
0
 62
     0
 10
13.4056
 20
-13.4056
 30
0.0
 11
14.4639
 21
-13.4056
 31
0.0
  0
LINE
  8
0
 62
     0
 10
14.4639
 20
-13.4056
 30
0.0
 11
15.5222
 21
-13.4056
 31
0.0
  0
LINE
  8
0
 62
     0
 10
15.5222
 20
-13.4056
 30
0.0
 11
15.5222
 21
-5.99722
 31
0.0
  0
LINE
  8
0
 62
     0
 10
15.5222
 20
-5.99722
 30
0.0
 11
15.5222
 21
1.41111
 31
0.0
  0
LINE
  8
0
 62
     0
 10
15.5222
 20
1.41111
 30
0.0
 11
2.11667
 21
1.41111
 31
0.0
  0
ENDSEC
  0
EOF
